<svg width="261" height="90" viewBox="0 0 261 90" fill="none" xmlns="http://www.w3.org/2000/svg">
    <g clip-path="url(#clip0_536_1490)">
        <path d="M89.3754 32.4V14.397L71.5092 0H0V21.6L17.8751 45V18H71.5003L53.6163 45L89.3754 32.4ZM0 90H71.5003L89.3754 75.6V45H53.6252L71.5003 61.446V72H17.8751V45L0 68.4V90Z" fill="white"/>
        <path d="M130.798 48.8819H143.629V65.7839H121.92C119.34 65.7839 118.053 64.5149 118.053 61.9799V28.1729C118.053 25.6379 119.34 24.3659 121.92 24.3659H152.594V18.6149L147.407 14.5439H121.658C112.107 14.5439 107.334 19.3529 107.334 28.9679V61.1819C107.334 70.7999 112.11 75.6059 121.658 75.6059H154.351V39.0569H130.798V48.8819ZM206.862 46.4909L203.171 43.3919L206.249 39.6749C207.42 38.2589 208.006 36.5489 208.006 34.5419V28.9679C208.006 19.3529 203.231 14.5439 193.683 14.5439H165.383V75.6089H195.44C204.989 75.6089 209.764 70.7999 209.764 61.1849V53.5739C209.764 50.4479 208.796 48.0869 206.865 46.4939L206.862 46.4909ZM176.102 24.3659H193.414C195.991 24.3659 197.281 25.6349 197.281 28.1729V35.1629C197.281 37.7609 195.991 39.0569 193.414 39.0569H176.102V24.3659ZM199.039 61.9799C199.039 64.5179 197.749 65.7839 195.172 65.7839H176.102V48.8819H195.172C197.749 48.8819 199.039 50.1509 199.039 52.6859V61.9799ZM250.805 41.6249L232.966 38.0849C230.973 37.6739 229.978 36.3449 229.978 34.1039V28.1729C229.978 25.6379 231.265 24.3659 233.845 24.3659H259.242V18.6149L254.056 14.5439H233.577C224.025 14.5439 219.253 19.3529 219.253 28.9679V33.8339C219.253 41.6819 222.649 46.2839 229.448 47.6399L247.287 51.2669C249.277 51.6809 250.275 53.0069 250.275 55.2509V61.9769C250.275 64.5149 248.985 65.7809 246.408 65.7809H219.25V71.5319L224.437 75.6029H246.67C256.218 75.6029 260.994 70.7939 260.994 61.1789V55.4279C260.994 47.6399 257.595 43.0379 250.799 41.6219L250.805 41.6249Z" fill="white"/>
    </g>
    <defs>
        <clipPath id="clip0_536_1490">
            <rect width="261" height="90" fill="white"/>
        </clipPath>
    </defs>
</svg>
