<svg width="18" height="18" viewBox="0 0 18 18" fill="none" xmlns="http://www.w3.org/2000/svg">
    <path d="M8.9998 17.6998C7.7998 17.6998 6.67064 17.4706 5.6123 17.0123C4.55397 16.554 3.63314 15.9331 2.8498 15.1498C2.06647 14.3665 1.44564 13.4456 0.987305 12.3873C0.528971 11.329 0.299805 10.1998 0.299805 8.9998C0.299805 7.7998 0.528971 6.67064 0.987305 5.6123C1.44564 4.55397 2.06647 3.63314 2.8498 2.8498C3.63314 2.06647 4.55397 1.44564 5.6123 0.987305C6.67064 0.528971 7.7998 0.299805 8.9998 0.299805C10.1998 0.299805 11.329 0.528971 12.3873 0.987305C13.4456 1.44564 14.3665 2.06647 15.1498 2.8498C15.9331 3.63314 16.554 4.55397 17.0123 5.6123C17.4706 6.67064 17.6998 7.7998 17.6998 8.9998C17.6998 10.1998 17.4706 11.329 17.0123 12.3873C16.554 13.4456 15.9331 14.3665 15.1498 15.1498C14.3665 15.9331 13.4456 16.554 12.3873 17.0123C11.329 17.4706 10.1998 17.6998 8.9998 17.6998ZM8.9998 17.0248C9.63314 16.2248 10.1498 15.4498 10.5498 14.6998C10.9498 13.9498 11.2748 13.0998 11.5248 12.1498H6.4748C6.75814 13.1665 7.09147 14.0498 7.4748 14.7998C7.85814 15.5498 8.36647 16.2915 8.9998 17.0248ZM8.1248 16.9498C7.60814 16.3998 7.13314 15.6873 6.6998 14.8123C6.26647 13.9373 5.9498 13.0498 5.7498 12.1498H1.6498C2.2498 13.5165 3.1248 14.6248 4.2748 15.4748C5.4248 16.3248 6.70814 16.8165 8.1248 16.9498ZM9.8748 16.9498C11.2915 16.8165 12.5748 16.3248 13.7248 15.4748C14.8748 14.6248 15.7498 13.5165 16.3498 12.1498H12.2498C11.9665 13.0665 11.6081 13.9623 11.1748 14.8373C10.7415 15.7123 10.3081 16.4165 9.8748 16.9498ZM1.3748 11.4498H5.5998C5.51647 11.0165 5.45814 10.5956 5.4248 10.1873C5.39147 9.77897 5.3748 9.38314 5.3748 8.9998C5.3748 8.61647 5.39147 8.22064 5.4248 7.8123C5.45814 7.40397 5.51647 6.98314 5.5998 6.5498H1.3748C1.25814 6.8998 1.16647 7.29147 1.0998 7.7248C1.03314 8.15814 0.999805 8.58314 0.999805 8.9998C0.999805 9.41647 1.03314 9.84147 1.0998 10.2748C1.16647 10.7081 1.25814 11.0998 1.3748 11.4498ZM6.2998 11.4498H11.6998C11.7831 11.0165 11.8415 10.604 11.8748 10.2123C11.9081 9.82064 11.9248 9.41647 11.9248 8.9998C11.9248 8.58314 11.9081 8.17897 11.8748 7.7873C11.8415 7.39564 11.7831 6.98314 11.6998 6.5498H6.2998C6.21647 6.98314 6.15814 7.39564 6.1248 7.7873C6.09147 8.17897 6.0748 8.58314 6.0748 8.9998C6.0748 9.41647 6.09147 9.82064 6.1248 10.2123C6.15814 10.604 6.21647 11.0165 6.2998 11.4498ZM12.3998 11.4498H16.6248C16.7415 11.0998 16.8331 10.7081 16.8998 10.2748C16.9665 9.84147 16.9998 9.41647 16.9998 8.9998C16.9998 8.58314 16.9665 8.15814 16.8998 7.7248C16.8331 7.29147 16.7415 6.8998 16.6248 6.5498H12.3998C12.4831 6.98314 12.5415 7.40397 12.5748 7.8123C12.6081 8.22064 12.6248 8.61647 12.6248 8.9998C12.6248 9.38314 12.6081 9.77897 12.5748 10.1873C12.5415 10.5956 12.4831 11.0165 12.3998 11.4498ZM12.2498 5.8498H16.3498C15.7331 4.4498 14.8706 3.34147 13.7623 2.5248C12.654 1.70814 11.3581 1.20814 9.8748 1.0248C10.3915 1.65814 10.8581 2.3998 11.2748 3.2498C11.6915 4.0998 12.0165 4.96647 12.2498 5.8498ZM6.4748 5.8498H11.5248C11.2415 4.8498 10.8956 3.95397 10.4873 3.1623C10.079 2.37064 9.58314 1.64147 8.9998 0.974805C8.41647 1.64147 7.92064 2.37064 7.5123 3.1623C7.10397 3.95397 6.75814 4.8498 6.4748 5.8498ZM1.6498 5.8498H5.7498C5.98314 4.96647 6.30814 4.0998 6.7248 3.2498C7.14147 2.3998 7.60814 1.65814 8.1248 1.0248C6.6248 1.20814 5.3248 1.7123 4.2248 2.5373C3.1248 3.3623 2.26647 4.46647 1.6498 5.8498Z" fill="white"/>
</svg>
