<svg width="152" height="50" viewBox="0 0 152 50" fill="none" xmlns="http://www.w3.org/2000/svg">
    <g clip-path="url(#clip0_185_1280)">
        <path d="M50.4068 18V7.99833L40.3305 0H0V12L10.0814 25V10H40.3254L30.239 25L50.4068 18ZM0 50H40.3254L50.4068 42V25H30.2441L40.3254 34.1367V40H10.0814V25L0 38V50Z" fill="white"/>
        <path d="M65.0822 6.81315H67.658V10.1565H63.2995C62.782 10.1565 62.5232 9.90648 62.5232 9.40315V2.71815C62.5232 2.21648 62.782 1.96482 63.2995 1.96482H69.4575V0.826484L68.4158 0.0214844H63.2474C61.3303 0.0214844 60.3709 0.973151 60.3709 2.87482V9.24482C60.3709 11.1465 61.3286 12.0982 63.2474 12.0982H69.8104V4.87148H65.0822V6.81482V6.81315ZM79.6817 10.1565H74.1773V0.023151H72.0249V12.0982H79.6817V10.1565ZM88.3937 12.0982C90.3108 12.0982 91.2702 11.1482 91.2702 9.24482V2.87648C91.2702 0.974818 90.3108 0.023151 88.3937 0.023151H84.3544C82.4373 0.023151 81.4779 0.974818 81.4779 2.87648V9.24648C81.4779 11.1482 82.4356 12.0998 84.3544 12.0998H88.3937V12.0982ZM83.6302 9.40315V2.71815C83.6302 2.21648 83.889 1.96482 84.4065 1.96482H88.3416C88.8591 1.96482 89.1179 2.21648 89.1179 2.71815V9.40315C89.1179 9.90482 88.8591 10.1565 88.3416 10.1565H84.4065C83.889 10.1565 83.6302 9.90648 83.6302 9.40315ZM102.494 9.24648V7.74148C102.494 7.12315 102.299 6.65648 101.913 6.34148L101.172 5.72815L101.788 4.99315C102.024 4.71315 102.141 4.37482 102.141 3.97815V2.87648C102.141 0.974818 101.182 0.023151 99.2664 0.023151H93.5856V12.0982H99.6193C101.536 12.0982 102.496 11.1482 102.496 9.24482L102.494 9.24648ZM95.7379 1.96648H99.2127C99.7302 1.96648 99.9889 2.21815 99.9889 2.71982V4.10148C99.9889 4.61482 99.7302 4.87148 99.2127 4.87148H95.7379V1.96648ZM95.7379 10.1565V6.81315H99.5655C100.083 6.81315 100.342 7.06482 100.342 7.56648V9.40315C100.342 9.90482 100.083 10.1565 99.5655 10.1565H95.7379ZM105.955 12.0982L106.802 9.43815H111.829L112.658 12.0982H114.476L114.741 11.6782L111.001 0.023151H107.649L103.89 11.6782L104.173 12.0982H105.955ZM109.15 1.96648H109.486L111.25 7.49648H107.404L109.151 1.96648H109.15ZM124.233 10.1565H118.728V0.023151H116.576V12.0982H124.233V10.1565ZM68.8762 21.2882L68.1352 20.6748L68.7518 19.9398C68.9871 19.6598 69.1047 19.3215 69.1047 18.9248V17.8232C69.1047 15.9215 68.1453 14.9698 66.2298 14.9698H60.549V27.0448H66.5827C68.4998 27.0448 69.4592 26.0948 69.4592 24.1915V22.6865C69.4592 22.0681 69.2643 21.6015 68.8778 21.2865L68.8762 21.2882ZM62.7013 16.9132H66.1777C66.6952 16.9132 66.954 17.1648 66.954 17.6665V19.0482C66.954 19.5615 66.6952 19.8182 66.1777 19.8182H62.7013V16.9132ZM67.3052 24.3498C67.3052 24.8515 67.0464 25.1031 66.5289 25.1031H62.6997V21.7598H66.5289C67.0464 21.7598 67.3052 22.0115 67.3052 22.5132V24.3498ZM78.8601 24.3498C78.8601 24.8515 78.6013 25.1031 78.0838 25.1031H74.5016C73.9841 25.1031 73.7253 24.8532 73.7253 24.3498V14.9698H71.5729V24.1915C71.5729 26.0931 72.5307 27.0448 74.4495 27.0448H78.1376C80.0547 27.0448 81.0124 26.0948 81.0124 24.1915V14.9698H78.8601V24.3498ZM89.4186 20.3248L85.8381 19.6248C85.4382 19.5432 85.2382 19.2815 85.2382 18.8365V17.6648C85.2382 17.1632 85.497 16.9115 86.0145 16.9115H91.1123V15.7732L90.0722 14.9682H85.9607C84.0436 14.9682 83.0858 15.9198 83.0858 17.8215V18.7832C83.0858 20.3348 83.768 21.2448 85.1324 21.5132L88.7129 22.2315C89.1128 22.3132 89.3128 22.5765 89.3128 23.0198V24.3498C89.3128 24.8515 89.054 25.1031 88.5365 25.1031H83.0858V26.2398L84.1259 27.0448H88.5903C90.5074 27.0448 91.4668 26.0948 91.4668 24.1915V23.0548C91.4668 21.5148 90.7846 20.6048 89.4203 20.3248H89.4186ZM95.7464 27.0448V14.9698H93.594V27.0448H95.7464ZM105.915 23.5798L100.517 14.9698H98.1709V27.0448H100.323V18.4348L105.739 27.0448H108.067V14.9698H105.915V23.5798ZM110.489 27.0448H118.675V25.1031H112.641V21.7598H118.145V19.8165H112.641V16.9115H118.675V14.9682H110.489V27.0431V27.0448ZM120.518 17.8232V18.7848C120.518 20.3365 121.2 21.2465 122.564 21.5148L126.145 22.2332C126.545 22.3148 126.745 22.5782 126.745 23.0215V24.3515C126.745 24.8532 126.486 25.1048 125.969 25.1048H120.518V26.2415L121.558 27.0465H126.022C127.939 27.0465 128.899 26.0965 128.899 24.1932V23.0565C128.899 21.5165 128.217 20.6065 126.852 20.3265L123.272 19.6265C122.872 19.5448 122.672 19.2832 122.672 18.8382V17.6665C122.672 17.1648 122.931 16.9132 123.448 16.9132H128.546V15.7748L127.506 14.9698H123.394C121.477 14.9698 120.52 15.9215 120.52 17.8232H120.518ZM136.275 27.0448C138.192 27.0448 139.152 26.0948 139.152 24.1915V23.0548C139.152 21.5148 138.469 20.6048 137.105 20.3248L133.525 19.6248C133.125 19.5432 132.925 19.2815 132.925 18.8365V17.6648C132.925 17.1632 133.183 16.9115 133.701 16.9115H138.799V15.7732L137.759 14.9682H133.647C131.73 14.9682 130.772 15.9198 130.772 17.8215V18.7832C130.772 20.3348 131.455 21.2448 132.819 21.5132L136.399 22.2315C136.799 22.3132 136.999 22.5765 136.999 23.0198V24.3498C136.999 24.8515 136.741 25.1031 136.223 25.1031H130.772V26.2398L131.812 27.0448H136.277H136.275ZM66.3525 35.2715L62.7702 34.5715C62.3703 34.4898 62.1704 34.2281 62.1704 33.7831V32.6098C62.1704 32.1082 62.4291 31.8582 62.9466 31.8582H68.0445V30.7198L67.0027 29.9148H62.8929C60.9757 29.9148 60.0163 30.8665 60.0163 32.7682V33.7315C60.0163 35.2831 60.6985 36.1932 62.0628 36.4615L65.6434 37.1782C66.0433 37.2598 66.2432 37.5232 66.2432 37.9648V39.2948C66.2432 39.7965 65.9845 40.0465 65.467 40.0465H60.0146V41.1848L61.0564 41.9898H65.5208C67.4379 41.9898 68.3956 41.0398 68.3956 39.1365V37.9982C68.3956 36.4582 67.7134 35.5482 66.3491 35.2682L66.3525 35.2715ZM77.3664 29.9165H73.3271C71.4099 29.9165 70.4505 30.8682 70.4505 32.7698V39.1398C70.4505 41.0415 71.4083 41.9932 73.3271 41.9932H77.3664C79.2835 41.9932 80.2429 41.0432 80.2429 39.1398V32.7698C80.2429 30.8682 79.2835 29.9165 77.3664 29.9165ZM78.0905 39.2965C78.0905 39.7982 77.8318 40.0481 77.3143 40.0481H73.3792C72.8617 40.0481 72.6029 39.7982 72.6029 39.2965V32.6115C72.6029 32.1098 72.8617 31.8598 73.3792 31.8598H77.3143C77.8318 31.8598 78.0905 32.1115 78.0905 32.6115V39.2965ZM84.7106 29.9165H82.5583V41.9915H90.215V40.0481H84.7106V29.9165ZM99.3303 39.2965C99.3303 39.7982 99.0715 40.0481 98.554 40.0481H94.9718C94.4543 40.0481 94.1955 39.7982 94.1955 39.2965V29.9165H92.0431V39.1382C92.0431 41.0398 93.0009 41.9915 94.9197 41.9915H98.6078C100.525 41.9915 101.483 41.0415 101.483 39.1382V29.9165H99.3303V39.2965ZM103.309 31.8598H107.138V41.9915H109.309V31.8598H113.138V29.9165H103.311V31.8598H103.309ZM115.01 41.9915H117.163V29.9165H115.01V41.9915ZM126.41 29.9165H122.371C120.454 29.9165 119.495 30.8682 119.495 32.7698V39.1398C119.495 41.0415 120.452 41.9932 122.371 41.9932H126.41C128.328 41.9932 129.287 41.0432 129.287 39.1398V32.7698C129.287 30.8682 128.328 29.9165 126.41 29.9165ZM127.133 39.2965C127.133 39.7982 126.874 40.0481 126.357 40.0481H122.422C121.904 40.0481 121.645 39.7982 121.645 39.2965V32.6115C121.645 32.1098 121.904 31.8598 122.422 31.8598H126.357C126.874 31.8598 127.133 32.1115 127.133 32.6115V39.2965ZM139.347 38.5265L133.948 29.9165H131.602V41.9915H133.755V33.3815L139.17 41.9915H141.499V29.9165H139.347V38.5265ZM149.954 35.2715L146.373 34.5715C145.973 34.4898 145.773 34.2281 145.773 33.7831V32.6098C145.773 32.1082 146.032 31.8582 146.55 31.8582H151.647V30.7198L150.607 29.9148H146.496C144.579 29.9148 143.621 30.8665 143.621 32.7682V33.7315C143.621 35.2831 144.303 36.1932 145.668 36.4615L149.248 37.1782C149.648 37.2598 149.848 37.5232 149.848 37.9648V39.2948C149.848 39.7965 149.589 40.0465 149.072 40.0465H143.621V41.1848L144.661 41.9898H149.125C151.043 41.9898 152.002 41.0398 152.002 39.1365V37.9982C152.002 36.4582 151.32 35.5482 149.955 35.2682L149.954 35.2715Z" fill="white"/>
    </g>
    <defs>
        <clipPath id="clip0_185_1280">
            <rect width="152" height="50" fill="white"/>
        </clipPath>
    </defs>
</svg>
