<svg width="44" height="48" viewBox="0 0 44 48" fill="none" xmlns="http://www.w3.org/2000/svg">
<path d="M19.1667 47.8003C13.8391 46.231 9.396 43.0017 5.83733 38.1123C2.27911 33.223 0.5 27.6432 0.5 21.373V7.07232L19.1667 0.0976562L37.8333 7.07232V23.0397C37.4902 22.9188 37.1102 22.7972 36.6933 22.675C36.276 22.5523 35.9038 22.4563 35.5767 22.387V8.59366L19.1667 2.54899L2.75667 8.59366V21.373C2.75667 24.4125 3.22644 27.2541 4.166 29.8977C5.10556 32.5417 6.35622 34.9199 7.918 37.0323C9.47978 39.1443 11.2647 40.9325 13.2727 42.397C15.2807 43.8614 17.3587 44.9105 19.5067 45.5443L19.6607 45.493C19.8189 45.7525 20.0156 46.0403 20.2507 46.3563C20.4853 46.6719 20.7091 46.9419 20.922 47.1663C20.618 47.3143 20.3198 47.4348 20.0273 47.5277C19.7349 47.6205 19.448 47.7114 19.1667 47.8003ZM32.764 47.903C29.876 47.903 27.4205 46.8897 25.3973 44.863C23.3747 42.8363 22.3633 40.3841 22.3633 37.5063C22.3633 34.5952 23.3747 32.1254 25.3973 30.097C27.42 28.069 29.8831 27.055 32.7867 27.055C35.66 27.055 38.11 28.069 40.1367 30.097C42.1633 32.1254 43.1767 34.5952 43.1767 37.5063C43.1767 40.3841 42.1633 42.8363 40.1367 44.863C38.11 46.8897 35.6525 47.903 32.764 47.903ZM31.83 43.903H33.7413V38.467H39.1767V36.5563H33.7413V31.1203H31.83V36.5563H26.394V38.467H31.83V43.903Z" fill="white"/>
</svg>
