<svg width="57" height="47" viewBox="0 0 57 47" fill="none" xmlns="http://www.w3.org/2000/svg">
<path d="M0.504883 46.2288V35.9175H2.76155V43.9722H10.8162V46.2288H0.504883ZM46.1835 46.2288V43.9722H54.2382V35.9175H56.4949V46.2288H46.1835ZM7.03155 39.7568V7.35684H12.3649V39.7568H7.03155ZM15.0415 39.7568V7.35684H17.7629V39.7568H15.0415ZM23.0962 39.7568V7.35684H28.4949V39.7568H23.0962ZM31.1816 39.7568V7.35684H39.2262V39.7568H31.1816ZM41.9135 39.7568V7.35684H44.6349V39.7568H41.9135ZM47.3115 39.7568V7.35684H49.9575V39.7568H47.3115ZM0.504883 11.2068V0.895508H10.8162V3.15217H2.76155V11.2068H0.504883ZM54.2382 11.2068V3.15217H46.1835V0.895508H56.4949V11.2068H54.2382Z" fill="white"/>
</svg>
