<svg width="49" height="43" viewBox="0 0 49 43" fill="none" xmlns="http://www.w3.org/2000/svg">
<path d="M0.5 11.59V3.89734C0.5 2.80489 0.876445 1.88222 1.62933 1.12933C2.38222 0.376445 3.30489 0 4.39733 0H44.6027C45.6951 0 46.6178 0.376445 47.3707 1.12933C48.1236 1.88222 48.5 2.80489 48.5 3.89734V19.3847H46.2433V3.89734C46.2433 3.48711 46.0724 3.11111 45.7307 2.76933C45.3889 2.42755 45.0129 2.25667 44.6027 2.25667H4.39733C3.98711 2.25667 3.61111 2.42755 3.26933 2.76933C2.92756 3.11111 2.75667 3.48711 2.75667 3.89734V11.59H0.5ZM11.1667 30.4613C10.9196 30.4613 10.7093 30.4184 10.536 30.3327C10.3627 30.2464 10.2162 30.1002 10.0967 29.894L5.11733 19.7947H0.5V17.5387H5.83333C6.04489 17.5387 6.236 17.5976 6.40667 17.7153C6.57733 17.8331 6.70756 17.9838 6.79733 18.1673L11.1667 26.834L20.808 7.50067C20.8978 7.33222 21.0367 7.20756 21.2247 7.12667C21.4127 7.04578 21.6127 7.00534 21.8247 7.00534C22.0367 7.00534 22.2311 7.04578 22.408 7.12667C22.5844 7.20756 22.7178 7.33222 22.808 7.50067L28.3647 18.6087C28.0549 18.8264 27.7396 19.0629 27.4187 19.318C27.0978 19.5731 26.8018 19.8496 26.5307 20.1473L21.782 10.5607L12.1307 29.894C12.0302 30.1002 11.8964 30.2464 11.7293 30.3327C11.5622 30.4184 11.3747 30.4613 11.1667 30.4613ZM22.3753 37.3333H4.39733C3.30489 37.3333 2.38222 36.9569 1.62933 36.204C0.876445 35.4511 0.5 34.5285 0.5 33.436V25.7433H2.75667V33.436C2.75667 33.8462 2.92756 34.2222 3.26933 34.564C3.61111 34.9058 3.98711 35.0767 4.39733 35.0767H21.698C21.8042 35.486 21.9051 35.8758 22.0007 36.246C22.0967 36.6167 22.2216 36.9791 22.3753 37.3333ZM37.826 42.4613C34.91 42.4613 32.4387 41.4458 30.412 39.4147C28.3853 37.3831 27.372 34.9091 27.372 31.9927C27.372 29.0767 28.3876 26.6053 30.4187 24.5787C32.4502 22.552 34.9242 21.5387 37.8407 21.5387C40.7567 21.5387 43.228 22.5542 45.2547 24.5853C47.2813 26.6169 48.2947 29.0909 48.2947 32.0073C48.2947 34.9233 47.2791 37.3947 45.248 39.4213C43.2164 41.448 40.7424 42.4613 37.826 42.4613ZM38.3667 32.9233L43.51 27.7793L42.054 26.3233L36.91 31.4667L38.3667 32.9233Z" fill="white"/>
</svg>
