<svg width="47" height="48" viewBox="0 0 47 48" fill="none" xmlns="http://www.w3.org/2000/svg">
<path d="M12.5931 42.5998C13.5722 43.2473 14.5951 43.8007 15.6618 44.2598C16.7284 44.7189 17.8362 45.0622 18.9851 45.2898V47.7045C17.8842 47.5049 16.7969 47.222 15.7231 46.8558C14.6498 46.4891 13.6031 46.0518 12.5831 45.5438C10.9502 46.378 9.29799 46.9967 7.62644 47.3998C5.95533 47.8033 4.27355 48.0051 2.5811 48.0051H1.34377V45.7485H2.5811C4.31799 45.7485 6.04088 45.4793 7.74977 44.9411C9.45866 44.4025 11.0731 43.622 12.5931 42.5998ZM17.6478 -0.00488281H27.5011V5.80312H36.2398C37.3113 5.80312 38.2286 6.1849 38.9918 6.94845C39.7553 7.71157 40.1371 8.62912 40.1371 9.70112V16.7845C39.786 16.7298 39.426 16.6905 39.0571 16.6665C38.6882 16.6429 38.296 16.6276 37.8804 16.6205V9.49578C37.8804 9.08556 37.7351 8.74356 37.4444 8.46978C37.1538 8.19645 36.8033 8.05979 36.3931 8.05979H8.75577C8.34555 8.05979 7.9951 8.19645 7.70444 8.46978C7.41377 8.74356 7.26844 9.08556 7.26844 9.49578V21.2818L22.5744 16.4698L26.4771 17.6925C26.0975 17.772 25.7351 17.8776 25.3898 18.0091C25.0444 18.1411 24.7031 18.2447 24.3658 18.3198L2.98844 25.0818L5.8531 35.8871C6.85933 35.3676 7.76199 34.7122 8.5611 33.9211C9.36066 33.13 10.1373 32.2891 10.8911 31.3985L12.5811 29.4771C13.526 30.4789 14.526 31.4962 15.5811 32.5291C16.6367 33.562 17.7713 34.5093 18.9851 35.3711V38.2858C18.006 37.8778 17.0044 37.248 15.9804 36.3965C14.9564 35.5453 13.8247 34.4109 12.5851 32.9931C11.0713 34.6558 9.67799 35.9453 8.4051 36.8618C7.13222 37.7778 5.76533 38.4945 4.30444 39.0118L0.565772 25.4238C0.441772 24.9518 0.493105 24.4842 0.719772 24.0211C0.946438 23.558 1.31333 23.2438 1.82044 23.0785L5.01244 22.0118V9.70112C5.01244 8.62912 5.39399 7.71157 6.1571 6.94845C6.92022 6.1849 7.83777 5.80312 8.90977 5.80312H17.6478V-0.00488281ZM28.3184 48.0051C27.9967 48.0051 27.7282 47.8973 27.5131 47.6818C27.2975 47.4667 27.1898 47.1985 27.1898 46.8771V44.1938C26.4822 43.808 25.9293 43.2665 25.5311 42.5691C25.1329 41.8718 24.9338 41.1198 24.9338 40.3131V28.2105C24.9338 26.2549 25.8049 24.8258 27.5471 23.9231C29.2898 23.0205 32.0331 22.5691 35.7771 22.5691C39.6433 22.5691 42.4264 23.0016 44.1264 23.8665C45.8269 24.7313 46.6771 26.1793 46.6771 28.2105V40.3131C46.6771 41.1007 46.4798 41.8413 46.0851 42.5351C45.69 43.2289 45.1351 43.7822 44.4204 44.1951V46.8771C44.4204 47.1985 44.3129 47.4667 44.0978 47.6818C43.8822 47.8973 43.6138 48.0051 43.2924 48.0051H41.6518C41.33 48.0051 41.0615 47.8973 40.8464 47.6818C40.6309 47.4667 40.5231 47.1985 40.5231 46.8771V44.8258H31.1038V46.8771C31.1038 47.1985 30.9933 47.4667 30.7724 47.6818C30.5515 47.8973 30.2804 48.0051 29.9591 48.0051H28.3184ZM30.8858 40.7745C31.4271 40.7745 31.878 40.5967 32.2384 40.2411C32.5993 39.8856 32.7798 39.4411 32.7798 38.9078C32.7798 38.3745 32.602 37.9282 32.2464 37.5691C31.8909 37.21 31.4464 37.0305 30.9131 37.0305C30.3798 37.0305 29.9335 37.2109 29.5744 37.5718C29.2153 37.9327 29.0358 38.3836 29.0358 38.9245C29.0358 39.4293 29.218 39.864 29.5824 40.2285C29.9464 40.5925 30.3809 40.7745 30.8858 40.7745ZM40.6811 40.7745C41.222 40.7745 41.6729 40.5967 42.0338 40.2411C42.3942 39.8856 42.5744 39.4411 42.5744 38.9078C42.5744 38.3745 42.3967 37.9282 42.0411 37.5691C41.6855 37.21 41.2411 37.0305 40.7078 37.0305C40.1744 37.0305 39.7282 37.2109 39.3691 37.5718C39.0104 37.9327 38.8311 38.3836 38.8311 38.9245C38.8311 39.4293 39.0131 39.864 39.3771 40.2285C39.7411 40.5925 40.1758 40.7745 40.6811 40.7745ZM27.2924 32.6205H44.3184V28.3131H27.2924V32.6205Z" fill="white"/>
</svg>
