<svg width="49" height="48" viewBox="0 0 49 48" fill="none" xmlns="http://www.w3.org/2000/svg">
<path d="M21.6134 48H5.49068C4.08752 48 2.90495 47.514 1.94297 46.542C0.980989 45.57 0.5 44.3751 0.5 42.9573V35.282H8.41753V0H42.7268V18.2087L40.4934 20.4647V2.25666H10.6509V35.282H25.8295L21.6134 39.542V48ZM27.5007 48V42.108L43.2296 26.282L48.9948 32.164L33.3327 48H27.5007ZM14.7106 20.9233V18.6667H36.4337V20.9233H14.7106ZM14.7106 13.5387V11.282H36.4337V13.5387H14.7106ZM43.2296 34.708L45.6708 32.1587L43.2296 29.6413L40.7224 32.1747L43.2296 34.708Z" fill="white"/>
</svg>
