<svg width="291" height="281" viewBox="0 0 291 281" fill="none" xmlns="http://www.w3.org/2000/svg">
    <g opacity="0.2">
        <path d="M53.1506 197.456L224.755 198.687L225.633 76.161L140.794 115.696L140.417 115.872L140.043 115.691L54.0349 74.0997L53.1506 197.456Z" fill="#03042C" stroke="#C9C9C9" stroke-width="2" stroke-linejoin="round"/>
        <path d="M237.724 221.528L66.1196 220.298L53.1497 197.457L224.754 198.687L237.724 221.528Z" fill="#03042C" stroke="#C9C9C9" stroke-width="2" stroke-linejoin="round"/>
        <path d="M238.603 99.0018L237.724 221.527L224.754 198.686L225.633 76.1607L238.603 99.0018Z" fill="#03042C" stroke="#C9C9C9" stroke-width="2" stroke-linejoin="round"/>
        <path d="M153.765 138.537L238.604 99.002L225.634 76.1608L140.795 115.696L153.765 138.537Z" fill="#03042C" stroke="#C9C9C9" stroke-width="2" stroke-linejoin="round"/>
        <path d="M153.388 138.713L153.765 138.537L140.795 115.696L140.418 115.872L153.388 138.713Z" fill="#03042C" stroke="#C9C9C9" stroke-width="2" stroke-linejoin="round"/>
        <path d="M153.014 138.532L153.388 138.713L140.418 115.872L140.044 115.69L153.014 138.532Z" fill="#03042C" stroke="#C9C9C9" stroke-width="2" stroke-linejoin="round"/>
        <path d="M66.1217 220.297L67.0061 96.9404L54.0362 74.0993L53.1519 197.456L66.1217 220.297Z" fill="#03042C" stroke="#C9C9C9" stroke-width="2" stroke-linejoin="round"/>
        <path d="M67.0043 96.9424L153.013 138.533L140.043 115.692L54.0344 74.1013L67.0043 96.9424Z" fill="#03042C" stroke="#C9C9C9" stroke-width="2" stroke-linejoin="round"/>
        <path d="M66.1201 220.296L237.724 221.526L238.601 99.1416L153.817 138.65L153.387 138.851L152.96 138.644L67.0034 97.0783L66.1201 220.296Z" fill="#03042C"/>
        <path d="M66.1201 220.296L66.1129 221.296C65.5606 221.292 65.1161 220.841 65.1201 220.289L66.1201 220.296ZM237.724 221.526L238.724 221.533C238.722 221.799 238.615 222.052 238.426 222.238C238.237 222.424 237.982 222.528 237.717 222.526L237.724 221.526ZM238.601 99.1416L238.179 98.2352C238.49 98.0903 238.853 98.1149 239.142 98.3002C239.43 98.4855 239.604 98.8058 239.601 99.1487L238.601 99.1416ZM153.817 138.65L153.394 137.744L153.395 137.744L153.817 138.65ZM153.387 138.851L153.81 139.757C153.537 139.885 153.222 139.882 152.951 139.751L153.387 138.851ZM152.96 138.644L153.395 137.744L153.396 137.744L152.96 138.644ZM67.0034 97.0783L66.0035 97.0712C66.0059 96.7282 66.1839 96.4105 66.4751 96.2293C66.7663 96.0481 67.13 96.0288 67.4388 96.1781L67.0034 97.0783ZM66.1201 220.296L66.1272 219.296L237.731 220.526L237.724 221.526L237.717 222.526L66.1129 221.296L66.1201 220.296ZM237.724 221.526L236.724 221.519L237.601 99.1344L238.601 99.1416L239.601 99.1487L238.724 221.533L237.724 221.526ZM238.601 99.1416L239.024 100.048L154.239 139.556L153.817 138.65L153.395 137.744L238.179 98.2352L238.601 99.1416ZM153.817 138.65L154.24 139.556L153.81 139.757L153.387 138.851L152.963 137.945L153.394 137.744L153.817 138.65ZM153.387 138.851L152.951 139.751L152.523 139.544L152.96 138.644L153.396 137.744L153.823 137.951L153.387 138.851ZM152.96 138.644L152.524 139.544L66.5681 97.9786L67.0034 97.0783L67.4388 96.1781L153.395 137.744L152.96 138.644ZM67.0034 97.0783L68.0034 97.0855L67.12 220.303L66.1201 220.296L65.1201 220.289L66.0035 97.0712L67.0034 97.0783Z" fill="#C9C9C9"/>
        <path d="M141.392 35.2566L54.8684 75.144L140.47 116.972L226.993 77.085L141.392 35.2566Z" fill="#03042C" stroke="#C9C9C9" stroke-width="2" stroke-linejoin="round"/>
        <path d="M235.519 92.2393L148.995 132.127L140.472 116.972L226.995 77.0842L235.519 92.2393Z" fill="#03042C" stroke="#C9C9C9" stroke-width="2" stroke-linejoin="round"/>
        <path d="M149.767 49.492L235.369 91.3203L226.846 76.1653L141.244 34.3369L149.767 49.492Z" fill="#03042C" stroke="#C9C9C9" stroke-width="2" stroke-linejoin="round"/>
        <path d="M148.995 132.126L63.3935 90.2976L54.8701 75.1426L140.472 116.971L148.995 132.126Z" fill="#03042C" stroke="#C9C9C9" stroke-width="2" stroke-linejoin="round"/>
        <path d="M63.2401 89.4183L149.827 49.6445L141.158 34.2311L54.5714 74.0049L63.2401 89.4183Z" fill="#03042C" stroke="#C9C9C9" stroke-width="2" stroke-linejoin="round"/>
        <path d="M149.952 49.399L63.4479 89.793L149.019 132.127L235.523 91.7333L149.952 49.399Z" fill="#03042C" stroke="#C9C9C9" stroke-width="2" stroke-linejoin="round"/>
    </g>
</svg>
