<svg width="230" height="236" viewBox="0 0 230 236" fill="none" xmlns="http://www.w3.org/2000/svg">
    <g opacity="0.2">
        <path d="M109.75 160.684L185.203 196.505L109.75 232.326L34.2969 196.505L109.75 160.684Z" fill="#03042C" stroke="white" stroke-width="2" stroke-linejoin="round"/>
        <path d="M109.75 137.819L34.2969 173.641V196.505L109.75 160.684V137.819Z" fill="#03042C" stroke="white" stroke-width="2" stroke-linejoin="round"/>
        <path d="M185.204 173.641L109.751 137.819V160.684L185.204 196.505V173.641Z" fill="#03042C" stroke="white" stroke-width="2" stroke-linejoin="round"/>
        <path d="M34.2969 173.641L109.75 209.462V232.326L34.2969 196.505V173.641Z" fill="#03042C" stroke="white" stroke-width="2" stroke-linejoin="round"/>
        <path d="M109.751 209.462L185.204 173.641V196.505L109.751 232.326V209.462Z" fill="#03042C" stroke="white" stroke-width="2" stroke-linejoin="round"/>
        <path d="M109.75 137.819L185.203 173.641L109.75 209.462L34.2969 173.641L109.75 137.819Z" fill="#03042C" stroke="white" stroke-width="2" stroke-linejoin="round"/>
        <path fill-rule="evenodd" clip-rule="evenodd" d="M49.7044 66.6388L49.5909 112.43L81.8894 144.889L81.9474 144.889L104.737 167.792L127.641 145.002L127.68 145.002L160.14 112.704L160.253 66.9128L127.954 34.453L82.1634 34.3395L49.7044 66.6388ZM122.896 71.7861L122.807 107.607L86.9859 107.518L87.0746 71.6973L122.896 71.7861Z" fill="#03042C" stroke="white" stroke-width="2" stroke-linejoin="round"/>
        <path d="M139.025 164.831L116.122 187.621L104.739 167.791L127.642 145.001L139.025 164.831Z" fill="#03042C" stroke="white" stroke-width="2" stroke-linejoin="round"/>
        <path d="M139.063 164.831L139.024 164.831L127.641 145.001L127.68 145.001L139.063 164.831Z" fill="#03042C" stroke="white" stroke-width="2" stroke-linejoin="round"/>
        <path d="M171.524 132.533L139.064 164.831L127.681 145.001L160.141 112.703L171.524 132.533Z" fill="#03042C" stroke="white" stroke-width="2" stroke-linejoin="round"/>
        <path d="M116.122 187.62L93.332 164.717L81.9489 144.887L104.739 167.791L116.122 187.62Z" fill="#03042C" stroke="white" stroke-width="2" stroke-linejoin="round"/>
        <path d="M93.3311 164.718L93.273 164.718L81.8898 144.888L81.9479 144.888L93.3311 164.718Z" fill="#03042C" stroke="white" stroke-width="2" stroke-linejoin="round"/>
        <path d="M171.637 86.7416L171.524 132.532L160.14 112.703L160.254 66.912L171.637 86.7416Z" fill="#03042C" stroke="white" stroke-width="2" stroke-linejoin="round"/>
        <path d="M98.3703 127.349L134.191 127.438L122.808 107.608L86.9872 107.519L98.3703 127.349Z" fill="#03042C" stroke="white" stroke-width="2" stroke-linejoin="round"/>
        <path d="M93.2734 164.718L60.975 132.259L49.5918 112.429L81.8903 144.888L93.2734 164.718Z" fill="#03042C" stroke="white" stroke-width="2" stroke-linejoin="round"/>
        <path d="M134.19 127.435L134.279 91.6143L122.896 71.7847L122.807 107.606L134.19 127.435Z" fill="#03042C" stroke="white" stroke-width="2" stroke-linejoin="round"/>
        <path d="M98.4589 91.5264L98.3702 127.347L86.987 107.518L87.0758 71.6968L98.4589 91.5264Z" fill="#03042C" stroke="white" stroke-width="2" stroke-linejoin="round"/>
        <path d="M139.338 54.2825L171.638 86.7422L160.255 66.9126L127.955 34.4529L139.338 54.2825Z" fill="#03042C" stroke="white" stroke-width="2" stroke-linejoin="round"/>
        <path d="M134.279 91.6152L98.4582 91.5265L87.0751 71.6969L122.896 71.7857L134.279 91.6152Z" fill="#03042C" stroke="white" stroke-width="2" stroke-linejoin="round"/>
        <path d="M60.9747 132.259L61.0882 86.4681L49.705 66.6385L49.5915 112.429L60.9747 132.259Z" fill="#03042C" stroke="white" stroke-width="2" stroke-linejoin="round"/>
        <path d="M93.5461 54.1687L139.337 54.2822L127.954 34.4526L82.1629 34.3392L93.5461 54.1687Z" fill="#03042C" stroke="white" stroke-width="2" stroke-linejoin="round"/>
        <path d="M61.0877 86.4676L93.5467 54.1684L82.1635 34.3388L49.7045 66.638L61.0877 86.4676Z" fill="#03042C" stroke="white" stroke-width="2" stroke-linejoin="round"/>
        <path d="M61.0871 86.4661L60.9746 132.258L93.2731 164.717L93.3317 164.717L116.122 187.62L139.025 164.83L139.064 164.831L171.523 132.532L171.523 132.493L171.524 132.492L171.523 132.491L171.637 86.7401L139.338 54.2811L93.5471 54.1676L61.0871 86.4661ZM134.28 91.6144L134.191 127.436L98.3697 127.347L98.4584 91.5256L134.28 91.6144Z" fill="#03042C"/>
        <path d="M61.0871 86.4661L60.0871 86.4637C60.0877 86.1985 60.1937 85.9444 60.3817 85.7573L61.0871 86.4661ZM60.9746 132.258L60.2657 132.963C60.0786 132.775 59.9739 132.521 59.9746 132.256L60.9746 132.258ZM93.2731 164.717L93.2706 165.717C93.0054 165.716 92.7513 165.61 92.5643 165.422L93.2731 164.717ZM93.3317 164.717L93.3342 163.717C93.5994 163.718 93.8535 163.824 94.0406 164.012L93.3317 164.717ZM116.122 187.62L116.827 188.329C116.436 188.719 115.802 188.717 115.413 188.326L116.122 187.62ZM139.025 164.83L138.32 164.122C138.508 163.935 138.762 163.83 139.027 163.83L139.025 164.83ZM139.064 164.831L139.769 165.539C139.581 165.726 139.327 165.831 139.062 165.831L139.064 164.831ZM171.523 132.532L172.523 132.534C172.522 132.8 172.416 133.054 172.228 133.241L171.523 132.532ZM171.523 132.493L170.523 132.49C170.524 132.225 170.63 131.971 170.818 131.784L171.523 132.493ZM171.524 132.492L172.233 131.787C172.623 132.178 172.621 132.811 172.229 133.201L171.524 132.492ZM171.523 132.491L170.814 133.196C170.627 133.008 170.523 132.754 170.523 132.488L171.523 132.491ZM171.637 86.7401L172.345 86.0348C172.532 86.2228 172.637 86.4774 172.637 86.7426L171.637 86.7401ZM139.338 54.2811L139.34 53.2811C139.606 53.2817 139.86 53.3877 140.047 53.5757L139.338 54.2811ZM93.5471 54.1676L92.8418 53.4587C93.0298 53.2717 93.2844 53.1669 93.5496 53.1676L93.5471 54.1676ZM134.28 91.6144L134.282 90.6144C134.834 90.6157 135.281 91.0646 135.28 91.6168L134.28 91.6144ZM134.191 127.436L135.191 127.438C135.189 127.99 134.741 128.437 134.188 128.436L134.191 127.436ZM98.3697 127.347L98.3672 128.347C97.8149 128.345 97.3683 127.897 97.3697 127.344L98.3697 127.347ZM98.4584 91.5256L97.4585 91.5231C97.4591 91.2579 97.5651 91.0038 97.7531 90.8167C97.9411 90.6296 98.1957 90.5249 98.4609 90.5256L98.4584 91.5256ZM61.0871 86.4661L62.0871 86.4686L61.9746 132.26L60.9746 132.258L59.9746 132.256L60.0871 86.4637L61.0871 86.4661ZM60.9746 132.258L61.6834 131.553L93.982 164.012L93.2731 164.717L92.5643 165.422L60.2657 132.963L60.9746 132.258ZM93.2731 164.717L93.2756 163.717L93.3342 163.717L93.3317 164.717L93.3292 165.717L93.2706 165.717L93.2731 164.717ZM93.3317 164.717L94.0406 164.012L116.831 186.915L116.122 187.62L115.413 188.326L92.6229 165.423L93.3317 164.717ZM116.122 187.62L115.416 186.912L138.32 164.122L139.025 164.83L139.73 165.539L116.827 188.329L116.122 187.62ZM139.025 164.83L139.027 163.83L139.066 163.831L139.064 164.831L139.062 165.831L139.022 165.83L139.025 164.83ZM139.064 164.831L138.359 164.122L170.818 131.823L171.523 132.532L172.228 133.241L139.769 165.539L139.064 164.831ZM171.523 132.532L170.523 132.53L170.523 132.49L171.523 132.493L172.523 132.495L172.523 132.534L171.523 132.532ZM171.523 132.493L170.818 131.784L170.819 131.783L171.524 132.492L172.229 133.201L172.229 133.202L171.523 132.493ZM171.524 132.492L170.815 133.197L170.814 133.196L171.523 132.491L172.232 131.786L172.233 131.787L171.524 132.492ZM171.523 132.491L170.523 132.488L170.637 86.7377L171.637 86.7401L172.637 86.7426L172.523 132.493L171.523 132.491ZM171.637 86.7401L170.928 87.4455L138.629 54.9864L139.338 54.2811L140.047 53.5757L172.345 86.0348L171.637 86.7401ZM139.338 54.2811L139.336 55.2811L93.5446 55.1676L93.5471 54.1676L93.5496 53.1676L139.34 53.2811L139.338 54.2811ZM93.5471 54.1676L94.2525 54.8765L61.7924 87.175L61.0871 86.4661L60.3817 85.7573L92.8418 53.4587L93.5471 54.1676ZM134.28 91.6144L135.28 91.6168L135.191 127.438L134.191 127.436L133.191 127.433L133.28 91.6119L134.28 91.6144ZM134.191 127.436L134.188 128.436L98.3672 128.347L98.3697 127.347L98.3721 126.347L134.193 126.436L134.191 127.436ZM98.3697 127.347L97.3697 127.344L97.4585 91.5231L98.4584 91.5256L99.4584 91.5281L99.3697 127.349L98.3697 127.347ZM98.4584 91.5256L98.4609 90.5256L134.282 90.6144L134.28 91.6144L134.277 92.6144L98.456 92.5256L98.4584 91.5256Z" fill="white"/>
    </g>
</svg>
