<svg width="310" height="272" viewBox="0 0 310 272" fill="none" xmlns="http://www.w3.org/2000/svg">
    <g opacity="0.2">
        <path d="M243.574 73.149C243.574 73.149 243.78 73.6539 244.125 74.5024C244.517 75.464 245.088 76.867 245.743 78.4769C246.9 81.3162 248.318 84.7989 249.474 87.6382C250.129 89.2481 250.7 90.6511 251.092 91.6127C251.437 92.4612 251.643 92.9661 251.643 92.9661L224.909 123.446L224.96 123.451L205.045 166.043L165.923 206.331L148.772 237.244L115.282 253.051L71.2828 236.59L122.353 189.093L141.554 196.276L190.745 127.343L164.427 130.134L183.356 79.5358L243.574 73.149Z" fill="#03042C" stroke="white" stroke-width="2" stroke-linejoin="round"/>
        <path d="M225.428 33.3105L165.21 39.6973L183.355 79.5354L243.573 73.1486L225.428 33.3105Z" fill="#03042C" stroke="white" stroke-width="2" stroke-linejoin="round"/>
        <path d="M165.21 39.6979L146.281 90.296L164.426 130.134L183.356 79.536L165.21 39.6979Z" fill="#03042C" stroke="white" stroke-width="2" stroke-linejoin="round"/>
        <path d="M225.98 34.6647L225.429 33.3113L243.575 73.1494L244.126 74.5028L225.98 34.6647Z" fill="#03042C" stroke="white" stroke-width="2" stroke-linejoin="round"/>
        <path d="M227.598 38.6403L225.979 34.6658L244.125 74.504L245.743 78.4784L227.598 38.6403Z" fill="#03042C" stroke="white" stroke-width="2" stroke-linejoin="round"/>
        <path d="M231.327 47.801L227.597 38.6396L245.743 78.4778L249.473 87.6391L231.327 47.801Z" fill="#03042C" stroke="white" stroke-width="2" stroke-linejoin="round"/>
        <path d="M232.946 51.7751L231.328 47.8006L249.473 87.6387L251.092 91.6132L232.946 51.7751Z" fill="#03042C" stroke="white" stroke-width="2" stroke-linejoin="round"/>
        <path d="M233.497 53.1285L232.946 51.7751L251.091 91.6133L251.642 92.9667L233.497 53.1285Z" fill="#03042C" stroke="white" stroke-width="2" stroke-linejoin="round"/>
        <path d="M146.28 90.2969L172.599 87.5056L190.744 127.344L164.426 130.135L146.28 90.2969Z" fill="#03042C" stroke="white" stroke-width="2" stroke-linejoin="round"/>
        <path d="M206.764 83.6083L233.498 53.1286L251.643 92.9667L224.909 123.446L206.764 83.6083Z" fill="#03042C" stroke="white" stroke-width="2" stroke-linejoin="round"/>
        <path d="M206.815 83.6133L206.764 83.6084L224.909 123.447L224.96 123.451L206.815 83.6133Z" fill="#03042C" stroke="white" stroke-width="2" stroke-linejoin="round"/>
        <path d="M172.6 87.5055L123.409 156.439L141.554 196.277L190.745 127.344L172.6 87.5055Z" fill="#03042C" stroke="white" stroke-width="2" stroke-linejoin="round"/>
        <path d="M186.898 126.207L206.813 83.6138L224.959 123.452L205.044 166.045L186.898 126.207Z" fill="#03042C" stroke="white" stroke-width="2" stroke-linejoin="round"/>
        <path d="M123.409 156.438L104.208 149.255L122.354 189.093L141.554 196.276L123.409 156.438Z" fill="#03042C" stroke="white" stroke-width="2" stroke-linejoin="round"/>
        <path d="M104.207 149.256L53.1361 196.753L71.2816 236.591L122.352 189.094L104.207 149.256Z" fill="#03042C" stroke="white" stroke-width="2" stroke-linejoin="round"/>
        <path d="M147.776 166.495L186.899 126.207L205.044 166.045L165.922 206.333L147.776 166.495Z" fill="#03042C" stroke="white" stroke-width="2" stroke-linejoin="round"/>
        <path d="M53.1357 196.752L97.1353 213.214L115.281 253.052L71.2812 236.59L53.1357 196.752Z" fill="#03042C" stroke="white" stroke-width="2" stroke-linejoin="round"/>
        <path d="M130.626 197.407L147.777 166.494L165.922 206.332L148.772 237.245L130.626 197.407Z" fill="#03042C" stroke="white" stroke-width="2" stroke-linejoin="round"/>
        <path d="M97.1373 213.215L130.627 197.408L148.773 237.246L115.283 253.053L97.1373 213.215Z" fill="#03042C" stroke="white" stroke-width="2" stroke-linejoin="round"/>
        <path d="M104.207 149.254L123.41 156.438L172.601 87.5043L146.282 90.2954L165.211 39.6973L225.429 33.3103L233.498 53.1272L206.763 83.6076L206.815 83.6125L186.9 126.205L147.773 166.497L130.627 197.405L97.1366 213.211L53.1359 196.75L104.207 149.254Z" fill="#03042C"/>
        <path d="M104.207 149.254L105.026 148.492C104.81 148.412 104.518 148.415 104.212 148.501C103.907 148.586 103.613 148.748 103.396 148.95L104.207 149.254ZM123.41 156.438L122.591 157.2C122.843 157.294 123.199 157.273 123.555 157.142C123.91 157.012 124.225 156.787 124.405 156.534L123.41 156.438ZM172.601 87.5043L173.596 87.6004C173.777 87.3473 173.803 87.0947 173.668 86.917C173.532 86.7393 173.25 86.6565 172.904 86.6932L172.601 87.5043ZM146.282 90.2954L145.17 90.4133C145.002 90.8613 145.364 91.1716 145.978 91.1065L146.282 90.2954ZM165.211 39.6973L165.514 38.8862C164.9 38.9513 164.267 39.3673 164.099 39.8152L165.211 39.6973ZM225.429 33.3103L226.55 32.818C226.452 32.5783 226.139 32.4561 225.732 32.4992L225.429 33.3103ZM233.498 53.1272L234.415 53.3221C234.624 53.0835 234.699 52.8312 234.619 52.6348L233.498 53.1272ZM206.763 83.6076L205.846 83.4126C205.646 83.6408 205.568 83.8819 205.633 84.0748C205.697 84.2678 205.897 84.394 206.182 84.4216L206.763 83.6076ZM206.815 83.6125L207.902 83.553C208.085 83.1611 207.873 82.8446 207.395 82.7985L206.815 83.6125ZM186.9 126.205L187.767 126.453C187.864 126.354 187.938 126.25 187.987 126.146L186.9 126.205ZM147.773 166.497L146.905 166.249C146.826 166.331 146.762 166.416 146.714 166.501L147.773 166.497ZM130.627 197.405L130.946 198.036C131.278 197.88 131.549 197.646 131.686 197.401L130.627 197.405ZM97.1366 213.211L96.318 213.973C96.6146 214.084 97.0509 214.034 97.4559 213.843L97.1366 213.211ZM53.1359 196.75L52.3248 196.447C52.1076 196.649 51.9849 196.874 51.9834 197.074C51.982 197.274 52.1021 197.431 52.3172 197.512L53.1359 196.75ZM104.207 149.254L103.388 150.015L122.591 157.2L123.41 156.438L124.229 155.677L105.026 148.492L104.207 149.254ZM123.41 156.438L124.405 156.534L173.596 87.6004L172.601 87.5043L171.606 87.4083L122.414 156.342L123.41 156.438ZM172.601 87.5043L172.904 86.6932L146.585 89.4843L146.282 90.2954L145.978 91.1065L172.298 88.3154L172.601 87.5043ZM146.282 90.2954L147.393 90.1775L166.323 39.5794L165.211 39.6973L164.099 39.8152L145.17 90.4133L146.282 90.2954ZM165.211 39.6973L164.907 40.5084L225.125 34.1215L225.429 33.3103L225.732 32.4992L165.514 38.8862L165.211 39.6973ZM225.429 33.3103L224.308 33.8027L232.377 53.6196L233.498 53.1272L234.619 52.6348L226.55 32.818L225.429 33.3103ZM233.498 53.1272L232.581 52.9323L205.846 83.4126L206.763 83.6076L207.68 83.8025L234.415 53.3221L233.498 53.1272ZM206.763 83.6076L206.182 84.4216L206.234 84.4265L206.815 83.6125L207.395 82.7985L207.344 82.7936L206.763 83.6076ZM206.815 83.6125L205.727 83.6721L185.812 126.265L186.9 126.205L187.987 126.146L207.902 83.553L206.815 83.6125ZM186.9 126.205L186.032 125.957L146.905 166.249L147.773 166.497L148.641 166.745L187.767 126.453L186.9 126.205ZM147.773 166.497L146.714 166.501L129.568 197.409L130.627 197.405L131.686 197.401L148.832 166.493L147.773 166.497ZM130.627 197.405L130.307 196.773L96.8174 212.58L97.1366 213.211L97.4559 213.843L130.946 198.036L130.627 197.405ZM97.1366 213.211L97.9553 212.45L53.9546 195.989L53.1359 196.75L52.3172 197.512L96.318 213.973L97.1366 213.211ZM53.1359 196.75L53.947 197.054L105.018 149.557L104.207 149.254L103.396 148.95L52.3248 196.447L53.1359 196.75Z" fill="white"/>
    </g>
</svg>
