<svg width="38" height="50" viewBox="0 0 38 50" fill="none" xmlns="http://www.w3.org/2000/svg">
<path d="M13.5787 27.7901L15.7 20.8841L10.1687 16.8874H17.01L19.1667 9.79343L21.2787 16.8874H28.1647L22.6627 20.8841L24.7393 27.7901L19.1667 23.5181L13.5787 27.7901ZM5.90867 49.6154V32.1268C4.12644 30.4081 2.77933 28.4161 1.86733 26.1508C0.955777 23.885 0.5 21.5185 0.5 19.0514C0.5 13.8345 2.30689 9.41921 5.92067 5.80543C9.53444 2.19165 13.9498 0.384766 19.1667 0.384766C24.3836 0.384766 28.7989 2.19165 32.4127 5.80543C36.0264 9.41921 37.8333 13.8345 37.8333 19.0514C37.8333 21.5185 37.3776 23.885 36.466 26.1508C35.554 28.4161 34.2069 30.4081 32.4247 32.1268V49.6154L19.1667 45.6248L5.90867 49.6154ZM19.1627 35.4614C23.7396 35.4614 27.6196 33.8714 30.8027 30.6914C33.9853 27.511 35.5767 23.6323 35.5767 19.0554C35.5767 14.4785 33.9867 10.5985 30.8067 7.41543C27.6262 4.23277 23.7476 2.64143 19.1707 2.64143C14.5938 2.64143 10.7138 4.23143 7.53067 7.41143C4.348 10.5919 2.75667 14.4705 2.75667 19.0474C2.75667 23.6243 4.34667 27.5043 7.52667 30.6874C10.7071 33.8701 14.5858 35.4614 19.1627 35.4614Z" fill="white"/>
</svg>
